<svg xmlns="http://www.w3.org/2000/svg" width="1200" height="340" viewBox="0 0 1200 340" role="img" aria-labelledby="t d">
  <title id="t">yolov5-object-detection-lab · YOLOv5 目标检测实训</title>
  <desc id="d">基于 YOLOv5 的目标检测实训,对街道、室内、自然场景图片进行检测与可视化。左侧标题与技术栈,右侧展示带检测框与置信度的检测结果场景。</desc>
  <rect width="1200" height="340" rx="22" fill="#0d0f12"/>
  <rect x="0" y="0" width="6" height="340" rx="3" fill="#22d3ee"/>

  <g transform="translate(56,54)" font-family="-apple-system,BlinkMacSystemFont,'Segoe UI','PingFang SC',sans-serif">
    <text x="0" y="0" font-size="15" letter-spacing="4" fill="#22d3ee" font-weight="600">COMPUTER VISION · YOLOv5</text>
    <text x="0" y="52" font-size="40" font-weight="700" fill="#e8edf0">YOLOv5 目标检测实训</text>
    <text x="0" y="96" font-size="17" fill="#7a8590">基于 YOLOv5 预训练模型的多场景检测</text>
    <text x="0" y="122" font-size="17" fill="#7a8590">街道 · 室内 · 自然场景 · 结果可视化</text>

    <g transform="translate(0,160)" font-size="13.5" font-family="ui-monospace,SFMono-Regular,Menlo,monospace">
      <g><rect width="80" height="30" rx="8" fill="none" stroke="#1e2530"/><text x="40" y="20" text-anchor="middle" fill="#a4b0bc">YOLOv5</text></g>
      <g transform="translate(92,0)"><rect width="80" height="30" rx="8" fill="none" stroke="#1e2530"/><text x="40" y="20" text-anchor="middle" fill="#a4b0bc">PyTorch</text></g>
      <g transform="translate(184,0)"><rect width="96" height="30" rx="8" fill="none" stroke="#1e2530"/><text x="48" y="20" text-anchor="middle" fill="#a4b0bc">Python 3.13</text></g>
      <g transform="translate(292,0)"><rect width="72" height="30" rx="8" fill="none" stroke="#1e2530"/><text x="36" y="20" text-anchor="middle" fill="#a4b0bc">CUDA</text></g>
      <g transform="translate(376,0)"><rect width="100" height="30" rx="8" fill="none" stroke="#0e4a52"/><text x="50" y="20" text-anchor="middle" fill="#22d3ee">yolov5s.pt</text></g>
    </g>
    <text x="0" y="236" font-size="13" font-family="ui-monospace,SFMono-Regular,Menlo,monospace" fill="#4d5762">detect.py --weights yolov5s.pt · 置信度分析 · 场景评估</text>
  </g>

  <g transform="translate(712,52)" font-family="-apple-system,BlinkMacSystemFont,'Segoe UI','PingFang SC',sans-serif">
    <text x="0" y="0" font-size="12" letter-spacing="3" fill="#4d5762">DETECTION RESULT</text>

    <g transform="translate(0,18)">
      <rect width="420" height="232" rx="12" fill="#11161c" stroke="#1e2530"/>
      <rect x="14" y="14" width="392" height="178" rx="8" fill="#0a0f14" stroke="#1e2530"/>
      <path d="M14,160 L80,160 L100,120 L130,180 L160,150 L406,150" stroke="#1e2530" stroke-width="1" fill="none"/>
      <path d="M14,180 L406,170" stroke="#1e2530" stroke-width="1" fill="none"/>

      <rect x="40" y="40" width="88" height="120" fill="none" stroke="#ef4444" stroke-width="2" rx="2"/>
      <rect x="40" y="26" width="44" height="16" rx="3" fill="#ef4444"/>
      <text x="62" y="38" text-anchor="middle" font-size="10" fill="#0d0f12" font-weight="700" font-family="ui-monospace,monospace">person 0.92</text>

      <rect x="160" y="70" width="120" height="86" fill="none" stroke="#22d3ee" stroke-width="2" rx="2"/>
      <rect x="160" y="56" width="32" height="16" rx="3" fill="#22d3ee"/>
      <text x="176" y="68" text-anchor="middle" font-size="10" fill="#0d0f12" font-weight="700" font-family="ui-monospace,monospace">car</text>
      <text x="266" y="68" font-size="9" fill="#22d3ee" text-anchor="end" font-family="ui-monospace,monospace">0.88</text>

      <rect x="300" y="96" width="74" height="62" fill="none" stroke="#a3e635" stroke-width="2" rx="2"/>
      <rect x="300" y="82" width="36" height="16" rx="3" fill="#a3e635"/>
      <text x="318" y="94" text-anchor="middle" font-size="9.5" fill="#0d0f12" font-weight="700" font-family="ui-monospace,monospace">dog 0.79</text>

      <rect x="222" y="44" width="56" height="40" fill="none" stroke="#fbbf24" stroke-width="2" rx="2"/>
      <rect x="222" y="30" width="34" height="16" rx="3" fill="#fbbf24"/>
      <text x="239" y="42" text-anchor="middle" font-size="9" fill="#0d0f12" font-weight="700" font-family="ui-monospace,monospace">0.71</text>

      <g transform="translate(14,204)" font-size="10.5" font-family="ui-monospace,SFMono-Regular,Menlo,monospace">
        <circle cx="6" cy="8" r="4" fill="#ef4444"/><text x="16" y="12" fill="#a4b0bc">person</text>
        <circle cx="76" cy="8" r="4" fill="#22d3ee"/><text x="86" y="12" fill="#a4b0bc">car</text>
        <circle cx="126" cy="8" r="4" fill="#a3e635"/><text x="136" y="12" fill="#a4b0bc">dog</text>
        <circle cx="170" cy="8" r="4" fill="#fbbf24"/><text x="180" y="12" fill="#a4b0bc">traffic light</text>
        <text x="392" y="12" fill="#4d5762" text-anchor="end">runs/detect/exp/</text>
      </g>
    </g>
  </g>

  <text x="56" y="312" font-size="12" font-family="ui-monospace,SFMono-Regular,Menlo,monospace" fill="#4d5762">author: liem · yolov5s · test_images/ → results/</text>
</svg>
